<svg class="svg-icon" style="width: 1em; height: 1em;vertical-align: middle;fill: currentColor;overflow: hidden;fill:#6B7988; " viewBox="0 0 1024 1024" version="1.1" xmlns="http://www.w3.org/2000/svg"><path d="M718.77 960H305.23c-66.51 0-120.62-54.11-120.62-120.62V288c0-9.52 7.72-17.23 17.23-17.23 9.52 0 17.23 7.72 17.23 17.23v551.39c0 47.5 38.65 86.15 86.15 86.15h413.53c47.5 0 86.15-38.65 86.15-86.15V288c0-9.52 7.71-17.23 17.23-17.23s17.23 7.72 17.23 17.23v551.39C839.38 905.9 785.27 960 718.77 960zM942.77 201.84H81.23c-9.52 0-17.23-7.72-17.23-17.23 0-9.52 7.72-17.23 17.23-17.23h861.54c9.52 0 17.23 7.72 17.23 17.23 0 9.52-7.71 17.23-17.23 17.23zM632.61 98.46H391.39c-9.52 0-17.23-7.72-17.23-17.23S381.87 64 391.39 64h241.22c9.52 0 17.23 7.72 17.23 17.23s-7.7 17.23-17.23 17.23z"  /><path d="M356.93 848c-9.52 0-17.23-7.72-17.23-17.23V288c0-9.52 7.72-17.23 17.23-17.23 9.52 0 17.23 7.72 17.23 17.23v542.77c0 9.52-7.72 17.23-17.23 17.23zM512 848c-9.52 0-17.23-7.72-17.23-17.23V288c0-9.52 7.72-17.23 17.23-17.23 9.52 0 17.24 7.72 17.24 17.23v542.77c0 9.52-7.72 17.23-17.24 17.23zM667.07 848c-9.52 0-17.23-7.72-17.23-17.23V288c0-9.52 7.71-17.23 17.23-17.23s17.23 7.72 17.23 17.23v542.77c0.01 9.52-7.7 17.23-17.23 17.23z"  /></svg>